<?xml version="1.0" standalone="no"?>
<!DOCTYPE svg PUBLIC "-//W3C//DTD SVG 20010904//EN"
 "http://www.w3.org/TR/2001/REC-SVG-20010904/DTD/svg10.dtd">
<svg version="1.0" xmlns="http://www.w3.org/2000/svg"
 width="1280.000000pt" height="656.000000pt" viewBox="0 0 1280.000000 656.000000"
 preserveAspectRatio="xMidYMid meet">

<g transform="translate(0.000000,656.000000) scale(0.100000,-0.100000)"
fill="#000000" stroke="none">
<path d="M6546 5472 c-7 -12 -296 -904 -296 -914 0 -5 17 -8 38 -8 l37 0 143
445 c79 244 142 452 140 462 -3 20 -52 31 -62 15z"/>
<path d="M1651 5029 c-54 -28 -97 -86 -111 -152 -8 -37 -10 -338 -8 -1032 l3
-980 22 -41 c86 -160 300 -160 386 0 22 40 22 51 27 506 5 459 5 466 28 515
46 100 114 145 228 153 129 8 219 -40 271 -146 l28 -57 5 -465 c5 -504 5 -501
62 -562 105 -111 300 -73 355 70 17 43 18 87 18 552 l0 505 -24 79 c-46 149
-140 260 -276 327 -133 66 -283 84 -432 53 -97 -20 -170 -52 -221 -99 l-41
-36 -3 333 -3 334 -26 49 c-37 74 -92 109 -177 113 -54 2 -76 -1 -111 -19z"/>
<path d="M10691 4808 c-52 -26 -95 -88 -110 -159 -6 -28 -11 -111 -11 -184 l0
-135 -70 0 c-134 0 -210 -70 -210 -193 0 -121 73 -187 206 -187 l73 0 3 -537
3 -538 24 -48 c81 -163 305 -166 385 -6 l26 53 0 538 0 538 86 0 c106 0 158
15 200 56 59 60 65 182 12 257 -35 48 -89 67 -200 67 l-98 0 0 158 c0 86 -5
174 -11 195 -13 47 -72 115 -116 134 -50 20 -141 17 -192 -9z"/>
<path d="M3863 4360 c-290 -53 -523 -273 -620 -587 -25 -81 -27 -101 -27 -253
0 -150 3 -173 27 -253 102 -332 336 -537 660 -577 62 -7 112 -7 175 0 323 40
557 245 659 577 24 80 27 103 27 253 0 152 -2 172 -27 253 -109 355 -382 580
-716 592 -58 2 -129 0 -158 -5z m264 -427 c123 -57 202 -217 203 -405 0 -189
-77 -345 -202 -409 -51 -26 -164 -36 -224 -20 -145 39 -242 192 -251 396 -7
154 24 264 104 362 86 107 239 138 370 76z"/>
<path d="M7917 4354 c-351 -76 -598 -376 -632 -769 -14 -162 35 -385 116 -522
55 -94 199 -231 294 -280 209 -107 427 -126 685 -57 186 49 369 163 414 258
33 71 8 171 -55 219 -79 59 -121 54 -291 -33 -150 -77 -222 -100 -310 -100
-206 0 -363 110 -402 283 l-6 27 493 0 c491 0 493 0 537 23 25 12 53 36 63 55
28 48 33 143 12 243 -90 446 -505 741 -918 653z m297 -384 c27 -13 67 -41 89
-63 42 -42 91 -138 101 -199 l7 -38 -346 0 -345 0 6 28 c21 98 56 164 114 216
76 69 127 86 240 83 65 -2 97 -8 134 -27z"/>
<path d="M9505 4364 c-257 -42 -433 -194 -475 -412 -27 -137 7 -266 96 -362
85 -91 168 -139 383 -221 234 -90 284 -132 261 -221 -10 -34 -18 -43 -57 -60
-39 -17 -60 -20 -130 -15 -78 4 -91 9 -218 73 -122 61 -141 68 -198 68 -48 1
-70 -4 -98 -21 -72 -45 -111 -133 -95 -217 11 -60 94 -139 200 -191 308 -152
666 -125 870 66 172 160 203 419 70 593 -37 49 -129 118 -211 160 -28 14 -120
53 -204 86 -167 66 -208 88 -239 127 -24 31 -25 63 -5 103 21 41 63 60 134 60
68 0 116 -14 246 -73 144 -65 204 -61 273 17 72 83 67 185 -16 277 -83 93
-261 157 -452 164 -58 2 -118 1 -135 -1z"/>
<path d="M4992 4337 c-48 -18 -102 -65 -118 -103 -19 -45 -18 -87 4 -170 31
-116 402 -1155 435 -1217 37 -70 85 -113 151 -132 63 -19 90 -19 154 0 64 19
116 63 146 124 13 25 74 207 136 404 63 196 117 354 121 350 4 -5 57 -168 119
-363 62 -195 121 -372 131 -392 25 -50 83 -104 128 -120 57 -20 159 -15 207
10 49 25 110 91 131 141 9 20 108 295 220 611 228 638 237 674 195 757 -26 50
-71 89 -120 103 -93 26 -189 -1 -239 -67 -23 -30 -135 -380 -279 -871 -9 -30
-17 -52 -19 -50 -2 2 -60 186 -130 408 -143 460 -147 473 -182 519 -54 70
-176 93 -263 49 -83 -42 -93 -65 -239 -536 -74 -238 -137 -432 -141 -432 -3 0
-57 170 -119 378 -63 207 -123 405 -133 440 -22 73 -66 127 -123 153 -45 21
-124 23 -173 6z"/>
<path d="M6292 2508 c-17 -17 -18 -698 0 -716 21 -21 58 -14 68 14 6 14 10 98
10 187 0 138 3 165 18 183 35 43 94 56 147 32 48 -22 55 -52 55 -228 0 -92 4
-170 10 -181 12 -21 50 -25 68 -7 8 8 12 64 12 187 0 150 -3 182 -19 217 -36
78 -117 117 -199 95 -26 -7 -57 -22 -69 -33 l-23 -21 0 114 c0 71 -5 123 -13
139 -14 28 -46 37 -65 18z"/>
<path d="M9322 2508 c-9 -9 -12 -104 -12 -365 l0 -353 25 -6 c50 -12 55 5 55
170 0 179 9 219 53 246 51 32 103 26 143 -14 l34 -34 0 -167 c0 -95 4 -175 10
-186 12 -21 50 -25 68 -7 8 8 12 64 12 187 0 150 -3 182 -19 217 -46 100 -167
132 -263 68 l-38 -24 0 128 c0 130 -6 152 -40 152 -9 0 -21 -5 -28 -12z"/>
<path d="M10922 2508 c-9 -9 -12 -102 -12 -358 0 -256 3 -349 12 -358 18 -18
56 -14 68 7 6 13 10 143 10 355 0 291 -2 337 -16 350 -18 19 -45 21 -62 4z"/>
<path d="M5562 2448 c-192 -589 -262 -812 -262 -827 0 -10 6 -24 14 -30 37
-31 49 -3 195 451 79 244 144 448 145 453 0 6 -15 11 -36 13 l-36 3 -20 -63z"/>
<path d="M6946 2285 c-58 -20 -85 -44 -119 -103 -78 -139 -23 -337 108 -387
153 -59 299 57 300 239 0 92 -23 153 -79 204 -64 59 -133 75 -210 47z m149
-98 c19 -19 38 -52 45 -78 25 -90 -6 -206 -61 -234 -37 -20 -109 -19 -138 1
-36 26 -61 90 -61 163 0 115 50 180 139 181 36 0 49 -6 76 -33z"/>
<path d="M7476 2285 c-112 -40 -176 -183 -141 -318 9 -34 27 -78 40 -98 61
-93 197 -118 276 -51 l32 26 -8 -49 c-14 -100 -50 -135 -133 -135 -39 0 -67 7
-102 26 -59 32 -94 29 -98 -7 -4 -32 28 -58 101 -83 97 -33 189 -15 253 49 61
61 65 90 62 384 -3 229 -5 255 -20 265 -23 14 -50 -2 -58 -35 -4 -18 -8 -20
-14 -10 -12 20 -87 51 -121 50 -16 0 -47 -6 -69 -14z m135 -81 c89 -46 94
-268 7 -328 -33 -23 -109 -21 -142 5 -44 35 -60 76 -60 159 0 83 16 124 60
159 32 25 92 28 135 5z"/>
<path d="M8040 2291 c-108 -33 -170 -124 -170 -250 0 -159 89 -261 227 -261
101 0 209 59 201 111 -5 34 -29 34 -84 0 -40 -26 -58 -31 -111 -31 -58 0 -67
3 -98 33 -24 21 -38 44 -42 70 l-6 37 162 0 c214 0 220 6 175 152 -32 102
-155 169 -254 139z m120 -87 c32 -19 55 -55 65 -101 l7 -33 -136 0 -136 0 0
25 c0 35 24 79 56 104 33 26 104 28 144 5z"/>
<path d="M8507 2286 c-85 -31 -123 -106 -90 -174 15 -31 33 -45 119 -87 122
-60 134 -69 134 -106 0 -65 -105 -81 -196 -29 -29 16 -60 27 -68 24 -24 -9
-28 -37 -8 -64 48 -65 190 -91 272 -48 56 29 90 78 90 131 0 56 -51 104 -155
146 -89 37 -115 55 -115 83 0 58 94 77 165 33 49 -30 71 -31 85 -5 35 65 -132
134 -233 96z"/>
<path d="M8996 2288 c-57 -15 -121 -83 -140 -149 -57 -190 45 -359 216 -359
74 0 123 26 123 65 0 33 3 32 -111 19 -68 -8 -105 12 -133 69 -26 54 -28 153
-5 203 37 77 92 98 190 72 42 -12 47 -11 60 7 41 56 -87 103 -200 73z"/>
<path d="M9970 2287 c-53 -17 -116 -86 -134 -148 -46 -152 17 -309 139 -349
144 -48 284 64 288 231 3 94 -18 154 -72 210 -63 65 -135 83 -221 56z m144
-88 c36 -28 54 -67 62 -131 8 -71 -10 -134 -51 -175 -28 -28 -40 -33 -82 -33
-29 0 -58 7 -72 16 -84 59 -79 282 7 329 40 21 105 19 136 -6z"/>
<path d="M10506 2285 c-132 -47 -193 -239 -120 -381 39 -77 93 -116 169 -122
149 -12 256 113 243 282 -14 169 -149 272 -292 221z m133 -80 c89 -46 95 -269
10 -329 -27 -18 -97 -21 -132 -5 -56 26 -91 149 -67 238 7 26 26 59 45 78 27
27 41 33 74 33 23 0 55 -7 70 -15z"/>
</g>
</svg>
