<?xml version="1.0" standalone="no"?>
<!DOCTYPE svg PUBLIC "-//W3C//DTD SVG 20010904//EN"
 "http://www.w3.org/TR/2001/REC-SVG-20010904/DTD/svg10.dtd">
<svg version="1.0" xmlns="http://www.w3.org/2000/svg"
 width="1080.000000pt" height="1080.000000pt" viewBox="0 0 1080.000000 1080.000000"
 preserveAspectRatio="xMidYMid meet">

<g transform="translate(0.000000,1080.000000) scale(0.100000,-0.100000)"
fill="#000000" stroke="none">
<path d="M5206 9735 c-92 -19 -188 -51 -261 -88 -55 -27 -2875 -1652 -2955
-1702 -118 -74 -240 -195 -327 -325 -80 -119 -144 -296 -163 -450 -8 -69 -10
-569 -8 -1840 l3 -1745 28 -100 c65 -234 202 -442 380 -579 57 -44 597 -366
613 -366 2 0 5 982 6 2183 3 2078 4 2184 21 2222 45 101 155 159 256 136 32
-7 1536 -846 2495 -1392 l120 -68 30 18 c17 11 348 198 736 416 388 219 948
535 1245 703 297 168 560 311 585 319 101 31 210 -21 266 -127 18 -34 19 -110
22 -2223 1 -1203 4 -2187 7 -2187 9 0 508 291 566 331 235 160 412 447 449
730 8 59 10 614 8 1844 l-3 1760 -27 100 c-36 130 -120 299 -201 401 -66 83
-164 172 -252 230 -98 64 -2901 1678 -2980 1715 -148 71 -238 91 -425 95 -116
2 -185 -1 -234 -11z"/>
<path d="M4072 2409 l3 -771 425 -245 c234 -135 454 -258 490 -274 272 -116
609 -110 874 15 39 19 253 140 476 269 l405 234 3 772 c1 424 0 771 -4 771 -4
0 -1220 -668 -1306 -718 -26 -15 -35 -10 -691 351 -365 202 -667 367 -670 367
-4 0 -6 -347 -5 -771z"/>
</g>
</svg>
