<?xml version="1.0" encoding="UTF-8"?><svg id="Layer_2" xmlns="http://www.w3.org/2000/svg" width="164.39" height="241.89" viewBox="0 0 164.39 241.89"><defs><style>.cls-1{fill:#fce0e0;}.cls-2{fill:#f28f0e;}.cls-3{fill:#fa352c;}.cls-4{fill:#fff375;}.cls-5{fill:#ffdc01;}.cls-6{fill:#ff930f;}.cls-7{fill:#ab322f;}.cls-8{fill:#ffb10f;}</style></defs><g id="_Layer_"><g><polygon class="cls-7" points="139.05 0 111.82 66.73 55.26 66.73 80.4 0 139.05 0"/><path class="cls-2" d="m114.41,55.16h-61.25c-4.02,0-7.28,3.26-7.28,7.28v39h75.81v-39c0-4.02-3.26-7.28-7.28-7.28Zm1.9,14.29H49.88v-2.98c0-3.24,2.63-5.87,5.87-5.87h54.69c3.24,0,5.87,2.63,5.87,5.87v2.98Z"/><polygon class="cls-3" points="28.93 0 55.26 66.73 111.82 66.73 86.08 0 28.93 0"/><g><polygon class="cls-1" points="68.35 66.73 39.45 0 36.18 0 65.08 66.73 68.35 66.73"/><polygon class="cls-1" points="80.59 66.73 51.69 0 48.42 0 77.32 66.73 80.59 66.73"/><polygon class="cls-1" points="94.12 66.73 65.22 0 61.95 0 90.85 66.73 94.12 66.73"/><polygon class="cls-1" points="106.08 66.73 77.18 0 73.91 0 102.81 66.73 106.08 66.73"/></g><circle class="cls-8" cx="82.19" cy="159.7" r="82.19" transform="translate(-97.4 161.8) rotate(-63.43)"/><path class="cls-6" d="m148.28,110.83c8.29,12.83,13.1,28.13,13.1,44.54,0,45.39-36.8,82.19-82.19,82.19-27.09,0-51.12-13.1-66.09-33.32,14.64,22.66,40.11,37.65,69.09,37.65,45.39,0,82.19-36.8,82.19-82.19,0-18.31-5.98-35.21-16.1-48.87Z"/><circle class="cls-5" cx="82.19" cy="159.7" r="67.03" transform="translate(-97.4 161.8) rotate(-63.43)"/><g><g><path class="cls-4" d="m74,205.31c2.62,2.06,3.32,5.49,3.32,5.49,0,0-3.55.08-6.17-1.98-2.62-2.06-3.32-5.49-3.32-5.49,0,0,3.55-.08,6.17,1.98Z"/><path class="cls-4" d="m70.83,210.66c3.16-1.1,6.49.13,6.49.13,0,0-1.8,3.01-4.97,4.11-3.16,1.1-6.49-.13-6.49-.13,0,0,1.8-3.01,4.97-4.11Z"/></g><g><path class="cls-4" d="m63.77,202.53c2.31,2.4,2.52,5.88,2.52,5.88,0,0-3.53-.4-5.83-2.8-2.31-2.4-2.52-5.88-2.52-5.88,0,0,3.53.4,5.83,2.8Z"/><path class="cls-4" d="m59.88,207.41c3.29-.66,6.41,1.01,6.41,1.01,0,0-2.21,2.73-5.5,3.39-3.29.66-6.41-1.01-6.41-1.01,0,0,2.21-2.74,5.5-3.39Z"/><path class="cls-4" d="m55.72,198.55c1.89,2.73,1.54,6.2,1.54,6.2,0,0-3.42-.94-5.31-3.67-1.89-2.73-1.54-6.2-1.54-6.2,0,0,3.42.94,5.31,3.67Z"/><path class="cls-4" d="m51.1,202.76c3.35-.14,6.17,1.99,6.17,1.99,0,0-2.62,2.36-5.97,2.5-3.35.14-6.17-1.99-6.17-1.99,0,0,2.62-2.36,5.97-2.5Z"/><path class="cls-4" d="m48.2,192.49c1.16,3.1-.03,6.39-.03,6.39,0,0-3.08-1.73-4.25-4.83-1.16-3.1.03-6.39.03-6.39,0,0,3.08,1.73,4.25,4.83Z"/><path class="cls-4" d="m42.68,195.47c3.29.67,5.49,3.4,5.49,3.4,0,0-3.12,1.66-6.41,1-3.29-.67-5.49-3.4-5.49-3.4,0,0,3.12-1.66,6.41-1Z"/><path class="cls-4" d="m42.51,185.46c.39,3.28-1.56,6.2-1.56,6.2,0,0-2.58-2.4-2.97-5.67-.39-3.28,1.56-6.2,1.56-6.2,0,0,2.58,2.4,2.97,5.67Z"/><path class="cls-4" d="m36.43,187.08c3.04,1.41,4.52,4.58,4.52,4.58,0,0-3.43.89-6.47-.52-3.03-1.41-4.52-4.58-4.52-4.58,0,0,3.43-.89,6.47.52Z"/></g><g><path class="cls-4" d="m37.66,176.62c-.28,3.29-2.78,5.77-2.78,5.77,0,0-2.05-2.85-1.77-6.14.28-3.29,2.78-5.77,2.78-5.77,0,0,2.05,2.85,1.77,6.14Z"/><path class="cls-4" d="m31.38,177.01c2.69,1.97,3.51,5.37,3.51,5.37,0,0-3.54.2-6.23-1.77-2.69-1.97-3.51-5.37-3.51-5.37,0,0,3.54-.2,6.23,1.77Z"/><path class="cls-4" d="m35.16,168.18c-.8,3.2-3.67,5.26-3.67,5.26,0,0-1.56-3.14-.76-6.34.81-3.2,3.67-5.26,3.67-5.26,0,0,1.56,3.14.76,6.34Z"/><path class="cls-4" d="m28.89,167.6c2.34,2.37,2.6,5.85,2.6,5.85,0,0-3.53-.35-5.87-2.72-2.34-2.37-2.6-5.85-2.6-5.85,0,0,3.53.35,5.87,2.72Z"/><path class="cls-4" d="m34.89,158.78c-1.57,2.92-4.86,4.23-4.86,4.23,0,0-.74-3.42.83-6.33,1.57-2.92,4.86-4.23,4.86-4.23,0,0,.74,3.42-.83,6.33Z"/><path class="cls-4" d="m28.95,156.72c1.68,2.85,1.08,6.3,1.08,6.3,0,0-3.34-1.19-5.02-4.04-1.69-2.85-1.08-6.3-1.08-6.3,0,0,3.34,1.19,5.03,4.04Z"/><path class="cls-4" d="m36.56,149.3c-2.22,2.47-5.74,2.99-5.74,2.99,0,0,.09-3.49,2.32-5.96,2.22-2.47,5.74-2.99,5.74-2.99,0,0-.09,3.49-2.32,5.96Z"/><path class="cls-4" d="m31.28,145.91c.96,3.16-.46,6.37-.46,6.37,0,0-2.96-1.92-3.92-5.09-.96-3.16.46-6.37.46-6.37,0,0,2.96,1.93,3.92,5.09Z"/></g><path class="cls-4" d="m40,141.5c-2.74,1.91-6.28,1.62-6.28,1.62,0,0,.9-3.38,3.64-5.29,2.74-1.91,6.28-1.62,6.28-1.62,0,0-.9,3.38-3.64,5.29Z"/><path class="cls-4" d="m35.64,137.02c.2,3.3-1.92,6.1-1.92,6.1,0,0-2.44-2.54-2.64-5.83s1.92-6.1,1.92-6.1c0,0,2.44,2.54,2.64,5.83Z"/><path class="cls-4" d="m44.29,134.44c-3.01,1.46-6.46.62-6.46.62,0,0,1.43-3.2,4.44-4.65,3.01-1.46,6.46-.62,6.46-.62,0,0-1.43,3.2-4.44,4.65Z"/><path class="cls-4" d="m40.71,129.34c-.33,3.28-2.88,5.72-2.88,5.72,0,0-2-2.89-1.67-6.17.33-3.28,2.88-5.72,2.88-5.72,0,0,2,2.89,1.67,6.17Z"/><g><path class="cls-4" d="m92.19,204.86c-2.62,2.06-3.32,5.49-3.32,5.49,0,0,3.55.08,6.17-1.98,2.62-2.06,3.32-5.49,3.32-5.49,0,0-3.55-.08-6.17,1.98Z"/><path class="cls-4" d="m95.36,210.22c-3.16-1.1-6.49.13-6.49.13,0,0,1.8,3.01,4.97,4.11,3.16,1.1,6.49-.13,6.49-.13,0,0-1.8-3.01-4.97-4.11Z"/></g><g><path class="cls-4" d="m101.13,202.53c-2.31,2.4-2.52,5.88-2.52,5.88,0,0,3.53-.4,5.83-2.8,2.31-2.4,2.52-5.88,2.52-5.88,0,0-3.53.4-5.83,2.8Z"/><path class="cls-4" d="m105.01,207.41c-3.29-.66-6.41,1.01-6.41,1.01,0,0,2.21,2.73,5.5,3.39,3.29.66,6.41-1.01,6.41-1.01,0,0-2.21-2.74-5.5-3.39Z"/><path class="cls-4" d="m109.16,198.22c-1.89,2.73-1.54,6.2-1.54,6.2,0,0,3.42-.94,5.31-3.67,1.89-2.73,1.54-6.2,1.54-6.2,0,0-3.42.94-5.31,3.67Z"/><path class="cls-4" d="m113.79,202.43c-3.35-.14-6.16,1.99-6.16,1.99,0,0,2.62,2.36,5.97,2.5,3.35.14,6.17-1.99,6.17-1.99,0,0-2.62-2.36-5.97-2.5Z"/><path class="cls-4" d="m116.43,192.31c-1.16,3.1.03,6.39.03,6.39,0,0,3.08-1.73,4.25-4.83,1.16-3.1-.03-6.39-.03-6.39,0,0-3.08,1.73-4.25,4.83Z"/><path class="cls-4" d="m121.95,195.29c-3.29.67-5.49,3.4-5.49,3.4,0,0,3.12,1.66,6.41.99,3.29-.66,5.49-3.4,5.49-3.4,0,0-3.12-1.66-6.41-1Z"/><path class="cls-4" d="m122.42,184.82c-.39,3.28,1.56,6.2,1.56,6.2,0,0,2.58-2.4,2.98-5.67.39-3.28-1.56-6.2-1.56-6.2,0,0-2.58,2.4-2.98,5.67Z"/><path class="cls-4" d="m128.5,186.44c-3.03,1.41-4.52,4.58-4.52,4.58,0,0,3.43.89,6.47-.52,3.04-1.41,4.52-4.58,4.52-4.58,0,0-3.43-.89-6.47.52Z"/></g><g><path class="cls-4" d="m126.72,176.45c.28,3.29,2.78,5.77,2.78,5.77,0,0,2.05-2.85,1.77-6.14-.28-3.29-2.78-5.77-2.78-5.77,0,0-2.05,2.85-1.77,6.14Z"/><path class="cls-4" d="m133.01,176.85c-2.69,1.97-3.51,5.37-3.51,5.37,0,0,3.54.2,6.23-1.77,2.69-1.97,3.51-5.37,3.51-5.37,0,0-3.54-.2-6.23,1.77Z"/><path class="cls-4" d="m129.23,168c.8,3.2,3.67,5.26,3.67,5.26,0,0,1.56-3.14.76-6.34-.81-3.2-3.67-5.26-3.67-5.26,0,0-1.56,3.14-.76,6.34Z"/><path class="cls-4" d="m135.5,167.42c-2.34,2.37-2.6,5.85-2.6,5.85,0,0,3.53-.35,5.87-2.72,2.34-2.37,2.6-5.85,2.6-5.85,0,0-3.53.35-5.87,2.72Z"/><path class="cls-4" d="m129.46,158.92c1.57,2.92,4.86,4.23,4.86,4.23,0,0,.74-3.42-.83-6.33s-4.86-4.23-4.86-4.23c0,0-.74,3.42.83,6.33Z"/><path class="cls-4" d="m135.4,156.85c-1.68,2.85-1.08,6.3-1.08,6.3,0,0,3.34-1.19,5.02-4.04,1.69-2.85,1.08-6.3,1.08-6.3,0,0-3.34,1.19-5.03,4.04Z"/><path class="cls-4" d="m127.7,149.43c2.22,2.47,5.74,2.99,5.74,2.99,0,0-.09-3.49-2.32-5.96-2.22-2.47-5.74-2.99-5.74-2.99,0,0,.09,3.49,2.32,5.96Z"/><path class="cls-4" d="m132.98,146.04c-.96,3.16.46,6.37.46,6.37,0,0,2.96-1.93,3.92-5.09.96-3.16-.46-6.37-.46-6.37,0,0-2.96,1.92-3.92,5.09Z"/></g><path class="cls-4" d="m124.36,141.76c2.74,1.91,6.28,1.62,6.28,1.62,0,0-.9-3.38-3.64-5.29-2.74-1.91-6.28-1.62-6.28-1.62,0,0,.9,3.38,3.64,5.29Z"/><path class="cls-4" d="m128.72,137.28c-.2,3.3,1.92,6.1,1.92,6.1,0,0,2.44-2.54,2.64-5.83.2-3.3-1.92-6.1-1.92-6.1,0,0-2.44,2.54-2.64,5.83Z"/><path class="cls-4" d="m119.82,134.76c3.01,1.46,6.46.62,6.46.62,0,0-1.43-3.2-4.44-4.65-3.01-1.46-6.46-.62-6.46-.62,0,0,1.43,3.2,4.44,4.65Z"/><path class="cls-4" d="m123.4,129.66c.33,3.28,2.88,5.72,2.88,5.72,0,0,2-2.89,1.67-6.17-.33-3.28-2.88-5.72-2.88-5.72,0,0-2,2.89-1.66,6.17Z"/><path class="cls-4" d="m117.4,124.68c-.14.14-.29.28-.47.42-.05.04-.11.07-.16.1,10.52,8.96,17.14,21.92,17.14,36.32,0,26.97-23.23,48.9-51.79,48.9s-51.79-21.94-51.79-48.9c0-13.76,6.05-26.21,15.77-35.1-.28-.08-.55-.19-.84-.33-9.73,9.02-15.77,21.57-15.77,35.43,0,27.4,23.61,49.69,52.62,49.69s52.62-22.29,52.62-49.69c0-14.6-6.7-27.74-17.35-36.84Z"/><path class="cls-4" d="m51.26,128.2c-3.28.69-6.42-.94-6.42-.94,0,0,2.18-2.76,5.46-3.45,3.28-.7,6.42.94,6.42.94,0,0-2.18,2.76-5.46,3.45Z"/><path class="cls-4" d="m49.04,122.4c-1.13,3.11-4.2,4.87-4.2,4.87,0,0-1.23-3.28-.09-6.38,1.13-3.11,4.2-4.87,4.2-4.87,0,0,1.23,3.28.09,6.38Z"/><path class="cls-4" d="m113.21,128.2c3.28.69,6.42-.94,6.42-.94,0,0-2.18-2.76-5.46-3.45-3.28-.7-6.42.94-6.42.94,0,0,2.18,2.76,5.46,3.45Z"/><path class="cls-4" d="m115.42,122.4c1.13,3.11,4.2,4.87,4.2,4.87,0,0,1.23-3.28.09-6.38-1.13-3.11-4.2-4.87-4.2-4.87,0,0-1.23,3.28-.09,6.38Z"/></g><path class="cls-4" d="m79.27,130.3h11.56v55.68h-13.56v-40.67l-10.34,7.05-6.58-9.64,18.93-12.42Z"/></g></g></svg>