<svg xmlns="http://www.w3.org/2000/svg" width="72" height="72" viewBox="0 0 72 72"><g transform="translate(-256 -307)"><g transform="translate(256 307)"><path d="M36,0h0a0,0,0,0,1,0,0V36a0,0,0,0,1,0,0H0a0,0,0,0,1,0,0v0A36,36,0,0,1,36,0Z" fill="#f33"/><path d="M0,0H0A36,36,0,0,1,36,36v0a0,0,0,0,1,0,0H0a0,0,0,0,1,0,0V0A0,0,0,0,1,0,0Z" transform="translate(36)" fill="#3cb0d9"/><path d="M0,0H36a0,0,0,0,1,0,0V36a0,0,0,0,1,0,0h0A36,36,0,0,1,0,0V0A0,0,0,0,1,0,0Z" transform="translate(0 36)" fill="#e5ea49"/><path d="M0,0H36a0,0,0,0,1,0,0V0A36,36,0,0,1,0,36H0a0,0,0,0,1,0,0V0A0,0,0,0,1,0,0Z" transform="translate(36 36)" fill="#5ed540"/></g></g></svg>