<svg xmlns="http://www.w3.org/2000/svg" width="74" height="74" viewBox="0 0 74 74"><g transform="translate(-104 -463)"><path d="M37,0A37,37,0,1,1,0,37,37,37,0,0,1,37,0Z" transform="translate(104 463)" fill="#f24330"/><g transform="translate(124 480)"><path d="M11.306,43.49l3.4-8.209A17.1,17.1,0,1,1,41.339,21.052a17.007,17.007,0,0,1-7.7,14.229l3.4,8.209Z" transform="translate(-7 -4)" fill="none" stroke="#fff" stroke-linejoin="round" stroke-width="3"/><path d="M20,38v5.976" transform="translate(-6.87 -4.486)" fill="none" stroke="#fff" stroke-linecap="round" stroke-linejoin="round" stroke-width="3"/><path d="M28,38v5.976" transform="translate(-6.791 -4.486)" fill="none" stroke="#fff" stroke-linecap="round" stroke-linejoin="round" stroke-width="3"/><path d="M16.988,22.976A2.988,2.988,0,1,0,14,19.988,2.988,2.988,0,0,0,16.988,22.976Z" transform="translate(-6.909 -4.186)" fill="none" stroke="#fff" stroke-linejoin="round" stroke-width="3"/><path d="M30.988,22.976A2.988,2.988,0,1,0,28,19.988,2.988,2.988,0,0,0,30.988,22.976Z" transform="translate(-6.727 -4.186)" fill="none" stroke="#fff" stroke-linejoin="round" stroke-width="3"/><path d="M31.968,44H24" transform="translate(-6.757 -4.51)" fill="none" stroke="#fff" stroke-linecap="round" stroke-linejoin="round" stroke-width="3"/><path d="M23.968,44H16" transform="translate(-6.871 -4.51)" fill="none" stroke="#fff" stroke-linecap="round" stroke-linejoin="round" stroke-width="3"/></g></g></svg>