<svg xmlns="http://www.w3.org/2000/svg" width="77" height="77" viewBox="0 0 77 77"><g transform="translate(-286.5 -347.5)"><g transform="translate(288.308 349.308)"><path d="M37,0h0a0,0,0,0,1,0,0V74a0,0,0,0,1,0,0h0A37,37,0,0,1,0,37v0A37,37,0,0,1,37,0Z" transform="translate(-0.308 -0.308)" fill="#f33" stroke="#919799" stroke-width="3"/><path d="M0,0H0A37,37,0,0,1,37,37v0A37,37,0,0,1,0,74H0a0,0,0,0,1,0,0V0A0,0,0,0,1,0,0Z" transform="translate(36.692 -0.308)" fill="#44c8f5" stroke="#919799" stroke-width="3"/></g></g></svg>