<?xml version="1.0" encoding="UTF-8"?><svg id="Layer_2" xmlns="http://www.w3.org/2000/svg" width="164.39" height="241.89" viewBox="0 0 164.39 241.89"><defs><style>.cls-1{fill:#6b7384;}.cls-2{fill:#798093;}.cls-3{fill:#9ea8ba;}.cls-4{fill:#bac6d8;}.cls-5{fill:#cad5e5;}.cls-6{fill:#ff740d;}.cls-7{fill:#fa352c;}.cls-8{fill:#892020;}</style></defs><g id="_Layer_"><g><polygon class="cls-8" points="139.05 0 111.82 66.73 55.26 66.73 80.4 0 139.05 0"/><path class="cls-1" d="m114.41,55.16h-61.25c-4.02,0-7.28,3.26-7.28,7.28v39h75.81v-39c0-4.02-3.26-7.28-7.28-7.28Zm1.9,14.29H49.88v-2.98c0-3.24,2.63-5.87,5.87-5.87h54.69c3.24,0,5.87,2.63,5.87,5.87v2.98Z"/><polygon class="cls-7" points="28.93 0 55.26 66.73 111.82 66.73 86.08 0 28.93 0"/><g><polygon class="cls-6" points="65.68 66.73 38.81 0 34.49 0 61.37 66.73 65.68 66.73"/><polygon class="cls-6" points="78.87 66.73 51.99 0 47.68 0 74.56 66.73 78.87 66.73"/><polygon class="cls-6" points="91.57 66.73 64.7 0 60.38 0 87.26 66.73 91.57 66.73"/><polygon class="cls-6" points="105.23 66.73 78.35 0 74.04 0 100.92 66.73 105.23 66.73"/></g><circle class="cls-2" cx="82.19" cy="159.7" r="82.19" transform="translate(-86.83 220.45) rotate(-82.53)"/><path class="cls-1" d="m82.19,77.51c-.82,0-1.63.01-2.44.04,44.27,1.29,79.76,37.58,79.76,82.16s-35.49,80.87-79.76,82.16c.81.02,1.62.04,2.44.04,45.39,0,82.19-36.8,82.19-82.19s-36.8-82.19-82.19-82.19Z"/><circle class="cls-3" cx="82.19" cy="159.7" r="67.03" transform="translate(-86.83 220.45) rotate(-82.53)"/><path class="cls-5" d="m80.09,171.41h20.51v10.15h-36.81v-10.45c6.44-5.53,22.46-18.9,22.46-27.28,0-4.23-2.78-7.13-7.39-7.13s-9.28,1.84-13.37,3.93l-.36-11.18c27.79-11,43.12,6.56,30.02,25.92-3.18,4.69-8.2,10.04-15.05,16.04Z"/><g><g><path class="cls-4" d="m74,206.3c2.62,2.06,3.32,5.49,3.32,5.49,0,0-3.55.08-6.17-1.98-2.62-2.06-3.32-5.49-3.32-5.49,0,0,3.55-.08,6.17,1.98Z"/><path class="cls-4" d="m70.83,211.65c3.16-1.1,6.49.13,6.49.13,0,0-1.81,3.01-4.97,4.11-3.16,1.1-6.49-.13-6.49-.13,0,0,1.81-3.01,4.97-4.11Z"/></g><g><path class="cls-4" d="m63.77,203.52c2.31,2.4,2.52,5.88,2.52,5.88,0,0-3.53-.4-5.83-2.8-2.31-2.4-2.52-5.88-2.52-5.88,0,0,3.53.4,5.83,2.8Z"/><path class="cls-4" d="m59.88,208.4c3.29-.66,6.41,1.01,6.41,1.01,0,0-2.21,2.74-5.5,3.39-3.29.66-6.41-1.01-6.41-1.01,0,0,2.21-2.73,5.5-3.39Z"/><path class="cls-4" d="m55.72,199.54c1.89,2.73,1.54,6.2,1.54,6.2,0,0-3.42-.94-5.31-3.67-1.89-2.73-1.54-6.2-1.54-6.2,0,0,3.42.94,5.31,3.67Z"/><path class="cls-4" d="m51.1,203.75c3.35-.14,6.17,1.99,6.17,1.99,0,0-2.62,2.36-5.97,2.5-3.35.14-6.17-1.99-6.17-1.99,0,0,2.62-2.36,5.97-2.5Z"/><path class="cls-4" d="m48.2,193.48c1.16,3.1-.03,6.39-.03,6.39,0,0-3.08-1.73-4.25-4.83-1.16-3.1.03-6.39.03-6.39,0,0,3.08,1.73,4.25,4.83Z"/><path class="cls-4" d="m42.68,196.46c3.29.66,5.49,3.4,5.49,3.4,0,0-3.12,1.66-6.41,1-3.29-.67-5.49-3.4-5.49-3.4,0,0,3.12-1.66,6.41-.99Z"/><path class="cls-4" d="m42.51,186.45c.39,3.28-1.56,6.2-1.56,6.2,0,0-2.58-2.4-2.98-5.67-.39-3.28,1.56-6.2,1.56-6.2,0,0,2.58,2.4,2.97,5.67Z"/><path class="cls-4" d="m36.43,188.07c3.03,1.41,4.52,4.58,4.52,4.58,0,0-3.43.89-6.47-.52-3.04-1.41-4.52-4.58-4.52-4.58,0,0,3.43-.89,6.47.52Z"/></g><g><path class="cls-4" d="m37.66,177.6c-.28,3.29-2.78,5.77-2.78,5.77,0,0-2.05-2.85-1.77-6.14.28-3.29,2.78-5.77,2.78-5.77,0,0,2.05,2.85,1.77,6.14Z"/><path class="cls-4" d="m31.38,178c2.69,1.97,3.51,5.37,3.51,5.37,0,0-3.54.2-6.23-1.77-2.69-1.97-3.51-5.37-3.51-5.37,0,0,3.55-.2,6.23,1.77Z"/><path class="cls-4" d="m35.16,169.17c-.8,3.2-3.67,5.26-3.67,5.26,0,0-1.56-3.14-.76-6.34.8-3.21,3.67-5.26,3.67-5.26,0,0,1.56,3.14.76,6.34Z"/><path class="cls-4" d="m28.89,168.58c2.34,2.37,2.6,5.85,2.6,5.85,0,0-3.53-.35-5.87-2.72-2.34-2.37-2.6-5.85-2.6-5.85,0,0,3.53.35,5.87,2.72Z"/><path class="cls-4" d="m34.89,159.77c-1.57,2.92-4.86,4.23-4.86,4.23,0,0-.74-3.42.83-6.33,1.57-2.92,4.86-4.23,4.86-4.23,0,0,.74,3.42-.83,6.33Z"/><path class="cls-4" d="m28.95,157.71c1.69,2.85,1.08,6.3,1.08,6.3,0,0-3.34-1.19-5.03-4.04-1.68-2.85-1.08-6.3-1.08-6.3,0,0,3.34,1.19,5.03,4.04Z"/><path class="cls-4" d="m36.56,150.29c-2.22,2.47-5.74,2.99-5.74,2.99,0,0,.09-3.49,2.32-5.96,2.22-2.47,5.74-2.99,5.74-2.99,0,0-.09,3.49-2.32,5.96Z"/><path class="cls-4" d="m31.28,146.9c.96,3.16-.46,6.37-.46,6.37,0,0-2.96-1.93-3.92-5.09-.96-3.16.46-6.37.46-6.37,0,0,2.96,1.92,3.92,5.09Z"/></g><path class="cls-4" d="m40,142.49c-2.74,1.91-6.28,1.62-6.28,1.62,0,0,.9-3.38,3.64-5.29,2.74-1.91,6.28-1.62,6.28-1.62,0,0-.9,3.38-3.64,5.29Z"/><path class="cls-4" d="m35.64,138.01c.2,3.3-1.92,6.1-1.92,6.1,0,0-2.44-2.54-2.64-5.83-.2-3.3,1.92-6.1,1.92-6.1,0,0,2.44,2.54,2.64,5.83Z"/><path class="cls-4" d="m44.29,135.43c-3.01,1.46-6.46.62-6.46.62,0,0,1.43-3.2,4.44-4.65,3.01-1.46,6.46-.62,6.46-.62,0,0-1.43,3.2-4.44,4.65Z"/><path class="cls-4" d="m40.71,130.33c-.33,3.29-2.88,5.72-2.88,5.72,0,0-2-2.89-1.67-6.17.33-3.29,2.88-5.72,2.88-5.72,0,0,2,2.89,1.67,6.17Z"/><g><path class="cls-4" d="m92.19,205.85c-2.62,2.06-3.32,5.49-3.32,5.49,0,0,3.55.08,6.17-1.98,2.62-2.06,3.32-5.49,3.32-5.49,0,0-3.55-.08-6.17,1.98Z"/><path class="cls-4" d="m95.36,211.21c-3.16-1.1-6.49.13-6.49.13,0,0,1.81,3.01,4.97,4.11,3.16,1.1,6.49-.13,6.49-.13,0,0-1.8-3.01-4.97-4.11Z"/></g><g><path class="cls-4" d="m101.13,203.52c-2.31,2.4-2.52,5.88-2.52,5.88,0,0,3.53-.4,5.83-2.8,2.31-2.4,2.52-5.88,2.52-5.88,0,0-3.53.4-5.83,2.8Z"/><path class="cls-4" d="m105.01,208.4c-3.29-.66-6.41,1.01-6.41,1.01,0,0,2.21,2.74,5.5,3.39,3.29.66,6.41-1.01,6.41-1.01,0,0-2.21-2.73-5.5-3.39Z"/><path class="cls-4" d="m109.16,199.21c-1.89,2.73-1.54,6.2-1.54,6.2,0,0,3.42-.94,5.31-3.67,1.89-2.73,1.54-6.2,1.54-6.2,0,0-3.42.94-5.31,3.67Z"/><path class="cls-4" d="m113.79,203.42c-3.35-.14-6.17,1.99-6.17,1.99,0,0,2.62,2.36,5.97,2.5,3.35.14,6.16-1.99,6.16-1.99,0,0-2.62-2.36-5.97-2.5Z"/><path class="cls-4" d="m116.43,193.3c-1.16,3.1.03,6.39.03,6.39,0,0,3.08-1.73,4.25-4.83,1.16-3.1-.03-6.39-.03-6.39,0,0-3.08,1.73-4.25,4.83Z"/><path class="cls-4" d="m121.95,196.28c-3.29.66-5.49,3.4-5.49,3.4,0,0,3.12,1.66,6.41,1,3.29-.67,5.49-3.4,5.49-3.4,0,0-3.12-1.66-6.41-.99Z"/><path class="cls-4" d="m122.42,185.81c-.39,3.28,1.56,6.2,1.56,6.2,0,0,2.58-2.4,2.98-5.67.39-3.28-1.56-6.2-1.56-6.2,0,0-2.58,2.4-2.97,5.67Z"/><path class="cls-4" d="m128.5,187.43c-3.04,1.41-4.52,4.58-4.52,4.58,0,0,3.43.89,6.47-.52,3.03-1.41,4.52-4.58,4.52-4.58,0,0-3.43-.89-6.47.52Z"/></g><g><path class="cls-4" d="m126.72,177.44c.28,3.29,2.78,5.77,2.78,5.77,0,0,2.05-2.85,1.77-6.14-.28-3.29-2.78-5.77-2.78-5.77,0,0-2.05,2.85-1.77,6.14Z"/><path class="cls-4" d="m133.01,177.84c-2.69,1.97-3.51,5.37-3.51,5.37,0,0,3.54.2,6.23-1.77,2.69-1.97,3.51-5.37,3.51-5.37,0,0-3.54-.2-6.23,1.77Z"/><path class="cls-4" d="m129.23,168.99c.8,3.21,3.67,5.26,3.67,5.26,0,0,1.56-3.14.76-6.34-.8-3.21-3.67-5.26-3.67-5.26,0,0-1.56,3.14-.76,6.34Z"/><path class="cls-4" d="m135.5,168.41c-2.34,2.37-2.6,5.85-2.6,5.85,0,0,3.53-.35,5.87-2.72,2.34-2.37,2.6-5.85,2.6-5.85,0,0-3.53.35-5.87,2.72Z"/><path class="cls-4" d="m129.46,159.91c1.57,2.92,4.86,4.23,4.86,4.23,0,0,.74-3.42-.83-6.33-1.57-2.92-4.86-4.23-4.86-4.23,0,0-.74,3.42.83,6.33Z"/><path class="cls-4" d="m135.4,157.84c-1.69,2.85-1.08,6.3-1.08,6.3,0,0,3.34-1.19,5.02-4.04,1.69-2.85,1.08-6.3,1.08-6.3,0,0-3.34,1.19-5.02,4.04Z"/><path class="cls-4" d="m127.7,150.41c2.22,2.47,5.74,2.99,5.74,2.99,0,0-.09-3.49-2.32-5.96-2.22-2.47-5.74-2.99-5.74-2.99,0,0,.09,3.49,2.32,5.96Z"/><path class="cls-4" d="m132.98,147.03c-.96,3.16.46,6.37.46,6.37,0,0,2.96-1.92,3.92-5.09.96-3.16-.46-6.37-.46-6.37,0,0-2.96,1.92-3.92,5.09Z"/></g><path class="cls-4" d="m124.36,142.75c2.74,1.91,6.28,1.62,6.28,1.62,0,0-.9-3.38-3.64-5.29-2.74-1.91-6.28-1.62-6.28-1.62,0,0,.9,3.38,3.64,5.29Z"/><path class="cls-4" d="m128.72,138.27c-.2,3.3,1.92,6.1,1.92,6.1,0,0,2.44-2.54,2.64-5.83.2-3.3-1.92-6.1-1.92-6.1,0,0-2.44,2.54-2.64,5.83Z"/><path class="cls-4" d="m119.82,135.74c3.01,1.46,6.46.62,6.46.62,0,0-1.43-3.2-4.44-4.65s-6.46-.62-6.46-.62c0,0,1.43,3.2,4.44,4.65Z"/><path class="cls-4" d="m123.4,130.64c.33,3.29,2.88,5.72,2.88,5.72,0,0,2-2.89,1.67-6.17s-2.88-5.72-2.88-5.72c0,0-2,2.89-1.67,6.17Z"/><path class="cls-4" d="m117.4,125.67c-.14.14-.29.28-.47.42-.05.04-.11.07-.16.1,10.52,8.96,17.15,21.92,17.15,36.32,0,26.97-23.23,48.91-51.79,48.91s-51.79-21.94-51.79-48.91c0-13.76,6.05-26.21,15.77-35.1-.28-.08-.55-.19-.83-.33-9.73,9.02-15.77,21.57-15.77,35.43,0,27.4,23.6,49.69,52.62,49.69s52.62-22.29,52.62-49.69c0-14.6-6.7-27.74-17.35-36.84Z"/><path class="cls-4" d="m51.26,129.19c-3.28.7-6.42-.94-6.42-.94,0,0,2.18-2.76,5.46-3.45,3.28-.7,6.42.94,6.42.94,0,0-2.18,2.76-5.46,3.45Z"/><path class="cls-4" d="m49.04,123.39c-1.13,3.11-4.2,4.87-4.2,4.87,0,0-1.23-3.28-.09-6.38,1.13-3.11,4.2-4.87,4.2-4.87,0,0,1.23,3.28.09,6.38Z"/><path class="cls-4" d="m113.21,129.19c3.28.7,6.42-.94,6.42-.94,0,0-2.18-2.76-5.46-3.45-3.28-.7-6.42.94-6.42.94,0,0,2.18,2.76,5.46,3.45Z"/><path class="cls-4" d="m115.42,123.39c1.13,3.11,4.2,4.87,4.2,4.87,0,0,1.23-3.28.09-6.38-1.13-3.11-4.2-4.87-4.2-4.87,0,0-1.23,3.28-.09,6.38Z"/></g></g></g></svg>