<?xml version="1.0" encoding="UTF-8"?><svg xmlns="http://www.w3.org/2000/svg" width="164.39" height="241.89" viewBox="0 0 164.39 241.89"><defs><style>.cls-1{fill:#ea7603;}.cls-2{isolation:isolate;}.cls-3{fill:#c95506;}.cls-4{fill:#7f0b0b;}.cls-5{mix-blend-mode:screen;opacity:.69;}.cls-6{fill:#fa352c;}.cls-7{fill:#ff9b50;}.cls-8{fill:#ffb839;}.cls-9{fill:#ffb448;}.cls-10{fill:#8e2323;}</style></defs><g class="cls-2"><g id="Layer_2"><g id="_Layer_"><g><polygon class="cls-10" points="139.05 0 111.82 66.73 55.26 66.73 80.4 0 139.05 0"/><path class="cls-3" d="m114.41,55.16h-61.25c-4.02,0-7.28,3.26-7.28,7.28v39h75.81v-39c0-4.02-3.26-7.28-7.28-7.28Zm1.89,14.29H49.88v-2.98c0-3.24,2.63-5.87,5.87-5.87h54.69c3.24,0,5.87,2.63,5.87,5.87v2.98Z"/><polygon class="cls-6" points="28.93 0 55.26 66.73 111.82 66.73 86.08 0 28.93 0"/><g><polygon class="cls-4" points="67.79 66.73 39.45 0 36.19 0 64.53 66.73 67.79 66.73"/><polygon class="cls-4" points="78.18 66.73 49.84 0 46.58 0 74.92 66.73 78.18 66.73"/><polygon class="cls-4" points="90.03 66.73 61.69 0 58.43 0 86.77 66.73 90.03 66.73"/><polygon class="cls-4" points="101.43 66.73 73.09 0 69.83 0 98.17 66.73 101.43 66.73"/></g><circle class="cls-8" cx="82.19" cy="159.7" r="82.19" transform="translate(-88.61 215.25) rotate(-80.78)"/><path class="cls-1" d="m139.02,100.32c14.13,14.76,22.81,34.78,22.81,56.83,0,45.39-36.8,82.19-82.19,82.19-22.05,0-42.07-8.68-56.83-22.81,14.96,15.63,36.04,25.37,59.38,25.37,45.39,0,82.19-36.8,82.19-82.19,0-23.35-9.74-44.42-25.37-59.38Z"/><circle class="cls-7" cx="82.19" cy="159.7" r="67.03" transform="translate(-88.61 215.25) rotate(-80.78)"/><g class="cls-5"><g><path class="cls-9" d="m75.6,207.08c2.62,2.06,3.32,5.49,3.32,5.49,0,0-3.55.08-6.17-1.98s-3.32-5.49-3.32-5.49c0,0,3.55-.08,6.17,1.98Z"/><path class="cls-9" d="m72.43,212.44c3.16-1.1,6.49.13,6.49.13,0,0-1.8,3.01-4.97,4.11-3.16,1.1-6.49-.13-6.49-.13,0,0,1.81-3.01,4.97-4.11Z"/></g><g><path class="cls-9" d="m65.37,204.31c2.31,2.4,2.52,5.88,2.52,5.88,0,0-3.53-.4-5.83-2.8-2.31-2.4-2.52-5.88-2.52-5.88,0,0,3.53.4,5.83,2.8Z"/><path class="cls-9" d="m61.48,209.19c3.29-.66,6.41,1.01,6.41,1.01,0,0-2.21,2.74-5.5,3.39-3.29.66-6.41-1.01-6.41-1.01,0,0,2.21-2.74,5.5-3.39Z"/><path class="cls-9" d="m57.32,200.33c1.89,2.73,1.54,6.2,1.54,6.2,0,0-3.42-.94-5.31-3.67s-1.54-6.2-1.54-6.2c0,0,3.42.94,5.31,3.67Z"/><path class="cls-9" d="m52.69,204.54c3.35-.14,6.17,1.99,6.17,1.99,0,0-2.62,2.36-5.97,2.5-3.35.14-6.17-1.99-6.17-1.99,0,0,2.62-2.36,5.97-2.5Z"/><path class="cls-9" d="m49.8,194.27c1.16,3.1-.03,6.39-.03,6.39,0,0-3.08-1.73-4.25-4.83-1.16-3.1.03-6.39.03-6.39,0,0,3.08,1.73,4.25,4.83Z"/><path class="cls-9" d="m44.27,197.25c3.29.67,5.49,3.4,5.49,3.4,0,0-3.12,1.66-6.41,1-3.29-.67-5.49-3.4-5.49-3.4,0,0,3.12-1.66,6.41-1Z"/><path class="cls-9" d="m44.11,187.24c.39,3.28-1.56,6.2-1.56,6.2,0,0-2.58-2.4-2.97-5.67-.39-3.28,1.56-6.2,1.56-6.2,0,0,2.58,2.4,2.97,5.67Z"/><path class="cls-9" d="m38.03,188.86c3.04,1.41,4.52,4.58,4.52,4.58,0,0-3.43.89-6.47-.52-3.04-1.41-4.52-4.58-4.52-4.58,0,0,3.43-.89,6.47.52Z"/></g><g><path class="cls-9" d="m39.26,178.39c-.28,3.29-2.78,5.77-2.78,5.77,0,0-2.05-2.85-1.77-6.14.28-3.29,2.78-5.77,2.78-5.77,0,0,2.05,2.85,1.77,6.14Z"/><path class="cls-9" d="m32.97,178.79c2.69,1.97,3.51,5.37,3.51,5.37,0,0-3.54.2-6.24-1.77-2.69-1.97-3.51-5.37-3.51-5.37,0,0,3.55-.2,6.23,1.77Z"/><path class="cls-9" d="m36.75,169.96c-.8,3.21-3.67,5.26-3.67,5.26,0,0-1.56-3.14-.76-6.34.8-3.2,3.67-5.26,3.67-5.26,0,0,1.56,3.14.76,6.34Z"/><path class="cls-9" d="m30.48,169.37c2.34,2.37,2.6,5.85,2.6,5.85,0,0-3.53-.35-5.87-2.72s-2.6-5.85-2.6-5.85c0,0,3.53.35,5.87,2.72Z"/><path class="cls-9" d="m36.48,160.56c-1.57,2.92-4.86,4.23-4.86,4.23,0,0-.74-3.42.83-6.33,1.57-2.92,4.86-4.23,4.86-4.23,0,0,.74,3.42-.83,6.33Z"/><path class="cls-9" d="m30.54,158.5c1.68,2.85,1.08,6.3,1.08,6.3,0,0-3.34-1.19-5.02-4.04-1.69-2.85-1.08-6.3-1.08-6.3,0,0,3.34,1.19,5.03,4.04Z"/><path class="cls-9" d="m38.16,151.08c-2.22,2.47-5.74,2.99-5.74,2.99,0,0,.09-3.49,2.32-5.96,2.22-2.47,5.74-2.99,5.74-2.99,0,0-.09,3.49-2.32,5.96Z"/><path class="cls-9" d="m32.88,147.69c.96,3.16-.46,6.37-.46,6.37,0,0-2.96-1.92-3.92-5.09-.96-3.16.46-6.37.46-6.37,0,0,2.96,1.93,3.92,5.09Z"/></g><path class="cls-9" d="m41.59,143.28c-2.74,1.91-6.28,1.62-6.28,1.62,0,0,.9-3.38,3.64-5.29,2.74-1.91,6.28-1.62,6.28-1.62,0,0-.9,3.38-3.64,5.29Z"/><path class="cls-9" d="m37.24,138.8c.2,3.3-1.92,6.1-1.92,6.1,0,0-2.44-2.54-2.64-5.83-.2-3.3,1.92-6.1,1.92-6.1,0,0,2.44,2.54,2.64,5.83Z"/><path class="cls-9" d="m45.89,136.22c-3.01,1.46-6.46.62-6.46.62,0,0,1.43-3.2,4.44-4.65,3.01-1.46,6.46-.62,6.46-.62,0,0-1.43,3.2-4.44,4.65Z"/><path class="cls-9" d="m42.31,131.12c-.33,3.28-2.88,5.72-2.88,5.72,0,0-2-2.89-1.67-6.17.33-3.28,2.88-5.72,2.88-5.72,0,0,2,2.89,1.67,6.17Z"/><g><path class="cls-9" d="m93.79,206.64c-2.62,2.06-3.32,5.49-3.32,5.49,0,0,3.55.08,6.17-1.98,2.62-2.06,3.32-5.49,3.32-5.49,0,0-3.55-.08-6.17,1.98Z"/><path class="cls-9" d="m96.96,212c-3.16-1.1-6.49.13-6.49.13,0,0,1.8,3.01,4.97,4.11,3.16,1.1,6.49-.13,6.49-.13,0,0-1.8-3.01-4.97-4.11Z"/></g><g><path class="cls-9" d="m102.72,204.31c-2.31,2.4-2.52,5.88-2.52,5.88,0,0,3.53-.4,5.83-2.8,2.31-2.4,2.52-5.88,2.52-5.88,0,0-3.53.4-5.83,2.8Z"/><path class="cls-9" d="m106.61,209.19c-3.29-.66-6.41,1.01-6.41,1.01,0,0,2.21,2.74,5.5,3.39,3.29.66,6.41-1.01,6.41-1.01,0,0-2.21-2.74-5.5-3.39Z"/><path class="cls-9" d="m110.76,200c-1.89,2.73-1.54,6.2-1.54,6.2,0,0,3.42-.94,5.31-3.67,1.89-2.73,1.54-6.2,1.54-6.2,0,0-3.42.94-5.31,3.67Z"/><path class="cls-9" d="m115.38,204.21c-3.35-.14-6.17,1.99-6.17,1.99,0,0,2.62,2.36,5.97,2.5,3.35.14,6.17-1.99,6.17-1.99,0,0-2.62-2.36-5.97-2.5Z"/><path class="cls-9" d="m118.02,194.09c-1.16,3.1.03,6.39.03,6.39,0,0,3.08-1.73,4.25-4.83,1.16-3.1-.03-6.39-.03-6.39,0,0-3.08,1.73-4.25,4.83Z"/><path class="cls-9" d="m123.55,197.07c-3.29.67-5.49,3.4-5.49,3.4,0,0,3.12,1.66,6.41,1,3.29-.67,5.49-3.4,5.49-3.4,0,0-3.12-1.66-6.41-1Z"/><path class="cls-9" d="m124.02,186.6c-.39,3.28,1.56,6.2,1.56,6.2,0,0,2.58-2.4,2.98-5.67.39-3.28-1.56-6.2-1.56-6.2,0,0-2.58,2.4-2.98,5.67Z"/><path class="cls-9" d="m130.1,188.21c-3.04,1.41-4.52,4.58-4.52,4.58,0,0,3.43.89,6.47-.52,3.04-1.41,4.52-4.58,4.52-4.58,0,0-3.43-.89-6.47.52Z"/></g><g><path class="cls-9" d="m128.32,178.23c.28,3.29,2.78,5.77,2.78,5.77,0,0,2.05-2.85,1.77-6.14-.28-3.29-2.78-5.77-2.78-5.77,0,0-2.05,2.85-1.77,6.14Z"/><path class="cls-9" d="m134.61,178.63c-2.69,1.97-3.51,5.37-3.51,5.37,0,0,3.54.2,6.23-1.77,2.69-1.97,3.51-5.37,3.51-5.37,0,0-3.54-.2-6.23,1.77Z"/><path class="cls-9" d="m130.83,169.78c.8,3.2,3.67,5.26,3.67,5.26,0,0,1.56-3.14.76-6.34-.8-3.2-3.67-5.26-3.67-5.26,0,0-1.56,3.14-.76,6.34Z"/><path class="cls-9" d="m137.1,169.19c-2.34,2.37-2.6,5.85-2.6,5.85,0,0,3.53-.35,5.87-2.72,2.34-2.37,2.6-5.85,2.6-5.85,0,0-3.53.35-5.87,2.72Z"/><path class="cls-9" d="m131.05,160.7c1.57,2.92,4.86,4.23,4.86,4.23,0,0,.74-3.42-.83-6.33-1.57-2.92-4.86-4.23-4.86-4.23,0,0-.74,3.42.83,6.33Z"/><path class="cls-9" d="m136.99,158.63c-1.69,2.85-1.08,6.3-1.08,6.3,0,0,3.34-1.19,5.02-4.04,1.69-2.85,1.08-6.3,1.08-6.3,0,0-3.34,1.19-5.02,4.04Z"/><path class="cls-9" d="m129.3,151.2c2.22,2.47,5.74,2.99,5.74,2.99,0,0-.09-3.49-2.32-5.96s-5.74-2.99-5.74-2.99c0,0,.09,3.49,2.32,5.96Z"/><path class="cls-9" d="m134.58,147.82c-.96,3.16.46,6.37.46,6.37,0,0,2.96-1.93,3.92-5.09.96-3.16-.46-6.37-.46-6.37,0,0-2.96,1.92-3.92,5.09Z"/></g><path class="cls-9" d="m125.96,143.54c2.74,1.91,6.28,1.62,6.28,1.62,0,0-.9-3.38-3.64-5.29-2.74-1.91-6.28-1.62-6.28-1.62,0,0,.9,3.38,3.64,5.29Z"/><path class="cls-9" d="m130.32,139.06c-.2,3.3,1.92,6.1,1.92,6.1,0,0,2.44-2.54,2.64-5.83.2-3.3-1.92-6.1-1.92-6.1,0,0-2.44,2.54-2.64,5.83Z"/><path class="cls-9" d="m121.42,136.53c3.01,1.46,6.46.62,6.46.62,0,0-1.43-3.2-4.44-4.65-3.01-1.46-6.46-.62-6.46-.62,0,0,1.43,3.2,4.44,4.65Z"/><path class="cls-9" d="m125,131.43c.33,3.28,2.88,5.72,2.88,5.72,0,0,2-2.89,1.67-6.17-.34-3.28-2.88-5.72-2.88-5.72,0,0-2,2.89-1.67,6.17Z"/><path class="cls-9" d="m119,126.46c-.14.14-.29.28-.47.42-.05.04-.11.07-.16.1,10.52,8.96,17.14,21.92,17.14,36.32,0,26.97-23.23,48.91-51.79,48.91s-51.79-21.94-51.79-48.91c0-13.76,6.05-26.21,15.77-35.1-.28-.08-.55-.19-.83-.33-9.73,9.02-15.77,21.57-15.77,35.43,0,27.4,23.6,49.69,52.62,49.69s52.62-22.29,52.62-49.69c0-14.6-6.7-27.74-17.35-36.84Z"/><path class="cls-9" d="m52.86,129.98c-3.28.7-6.42-.94-6.42-.94,0,0,2.18-2.76,5.46-3.45,3.28-.7,6.42.94,6.42.94,0,0-2.18,2.76-5.46,3.45Z"/><path class="cls-9" d="m50.64,124.18c-1.13,3.11-4.2,4.87-4.2,4.87,0,0-1.23-3.28-.09-6.38,1.13-3.11,4.2-4.87,4.2-4.87,0,0,1.23,3.28.09,6.38Z"/><path class="cls-9" d="m114.8,129.98c3.28.7,6.42-.94,6.42-.94,0,0-2.18-2.76-5.46-3.45s-6.42.94-6.42.94c0,0,2.18,2.76,5.46,3.45Z"/><path class="cls-9" d="m117.02,124.18c1.13,3.11,4.2,4.87,4.2,4.87,0,0,1.23-3.28.09-6.38-1.13-3.11-4.2-4.87-4.2-4.87,0,0-1.23,3.28-.09,6.38Z"/></g><path class="cls-8" d="m92.4,152.14c6.56,1.75,10.63,5.92,10.63,12.79,0,16.41-22.96,18.79-38.48,14.5l.79-11.47c6.03,3.09,15.77,4.28,20.79,1.03,4.11-2.66,3.66-7.78.71-9.85-3.29-2.31-8.38-1.38-13.16-1.59v-9.72h6.06c11.92,0,12.19-12.48-.3-12.48-4.23,0-8.45.9-12.5,2.45l-.64-10.26c2.62-.8,5.27-1.41,7.95-1.81,29.56-4.42,30.68,15.27,25.34,21.92-1.63,2.03-4.04,3.53-7.21,4.49Z"/></g></g></g></g></svg>