<svg xmlns="http://www.w3.org/2000/svg" width="32" height="32" viewBox="0 0 32 32"><g transform="translate(-85 -46)"><rect width="32" height="32" transform="translate(85 46)" fill="none"/><g transform="translate(89 49.2)"><path d="M0,7.575a4.174,4.174,0,0,1,2.348-2.65C4.981,3.493,7.581,2,10.188.516a3.429,3.429,0,0,1,3.611,0Q18,2.9,22.21,5.262a3.239,3.239,0,0,1,1.778,3.027q-.017,4.747,0,9.495a3.266,3.266,0,0,1-1.811,3.052q-4.189,2.349-8.37,4.724a3.421,3.421,0,0,1-3.611,0c-1.467-.837-2.944-1.66-4.415-2.491-.126-.073-.244-.152-.374-.232a2.8,2.8,0,0,0,1.044-1.624,12.943,12.943,0,0,1,.793-1.874,16.586,16.586,0,0,1,2.23-3.578c.422-.533.6-.591,1.122-.163a21.765,21.765,0,0,1,1.715,1.624c.663.678,1.318,1.367,1.937,2.085a3.28,3.28,0,0,1,.959,1.715c.015.112.23.218.37.3a7.491,7.491,0,0,0,.685.341,2.129,2.129,0,0,0,.77.286.855.855,0,0,0,.615-.359c.067-.109-.081-.435-.222-.566a11.947,11.947,0,0,0-1.1-.812c.111-.174.181-.3.263-.413.207-.3.119-.515-.133-.754-.452-.424-.885-.874-1.3-1.33A4.755,4.755,0,0,0,13.7,16.359c-.215-.1-.344-.41-.478-.642-.533-.943-.993-1.932-1.585-2.839-.907-1.392-.6-2.784-.17-4.2.007-.029.011-.065.033-.08a16.7,16.7,0,0,1,1.681-1.149,8.434,8.434,0,0,1,1.489-.5,2.162,2.162,0,0,1,.578-.163,9.279,9.279,0,0,1,.981.076c-.019-.058-.056-.174-.093-.294.041-.018.081-.04.122-.058-.093-.058-.181-.116-.281-.181.07-.04.141-.083.3-.174-.233-.047-.363-.073-.5-.1-.03-.022-.056-.047-.085-.069l.37-.109-.1-.152c-.211.033-.489.163-.611.076-.141-.1-.144-.384-.3-.584-.019.087-.033.174-.052.257-.144.682-.341.935-1.018.852a3.529,3.529,0,0,0-1.959.642,1.447,1.447,0,0,1-.915.2,1.9,1.9,0,0,0-.756.163c-.2.054-.4.127-.674.214.015-.257-.037-.464.044-.587a1.138,1.138,0,0,0-.17-1.327.833.833,0,0,0-1.489.131,1.294,1.294,0,0,0,.152,1.378,2.789,2.789,0,0,1,.248.518c-.259,0-.444-.011-.626,0a9.087,9.087,0,0,1-1.081.1,3.944,3.944,0,0,1-1.226-.2,1.641,1.641,0,0,0-1.2-.069A.2.2,0,0,0,4.3,7.5a1.047,1.047,0,0,1-1.374-.4A.644.644,0,0,0,2.6,6.821c.033.17.067.344.107.551-.222-.054-.43-.109-.637-.16-.03.044-.056.087-.085.131.089.073.178.145.256.207-.059.022-.148.051-.319.109.2.094.322.152.481.225-.126.065-.233.12-.337.17.056.127.107.25.167.392a2.828,2.828,0,0,1,1.907.04,1.256,1.256,0,0,0,.693.047,1.438,1.438,0,0,1,1.052.189c.322.163.678.261,1.015.4a.758.758,0,0,1,.289.21,4.606,4.606,0,0,1,.7,2.632,8.145,8.145,0,0,1-.578,3.147,16.951,16.951,0,0,1-.581,1.762c-.178.392-.544.692-.759,1.073-.285.5-.489,1.044-.752,1.559a2.694,2.694,0,0,1-.456.682.668.668,0,0,0,.03,1.055c.059.065.111.134.2.247-.193.25-.393.508-.622.8-1.07-.627-2.126-1.2-3.137-1.853A3.3,3.3,0,0,1,0,18.5V7.571Z" transform="translate(0 -0.003)" fill="#44c8f5"/></g></g></svg>